REM DIRINDEX 1\2\6,1\2\7,1\2\8,1\2\9,1\3\10,1\3\11,1\4\12,1\4\13,1\4\14,1\5\15,1\5\16,1\5\17
REM DIRNAME folder01,folder02,folder03,folder04,folder05,folder06,folder07,folder08,folder09,folder10,folder11,folder12,folder13,folder14,folder15,folder16,folder17
TITLE ""
FILE "1900_2_sec03_0263_0278.mp3" MP3
  TRACK 01 AUDIO
    TITLE "0:"
    INDEX 01 00:00:00
  TRACK 02 AUDIO
    TITLE "13:cjc020_2620"
    INDEX 01 00:00:17
  TRACK 03 AUDIO
    TITLE "0:"
    INDEX 01 00:01:36
  TRACK 04 AUDIO
    TITLE "14:cjc020_2621"
    INDEX 01 00:01:40
  TRACK 05 AUDIO
    TITLE "0:"
    INDEX 01 00:03:57
  TRACK 06 AUDIO
    TITLE "13:cjc020_2622"
    INDEX 01 00:04:38
  TRACK 07 AUDIO
    TITLE "0:"
    INDEX 01 00:05:63
  TRACK 08 AUDIO
    TITLE "14:cjc020_2623"
    INDEX 01 00:05:71
  TRACK 09 AUDIO
    TITLE "0:"
    INDEX 01 00:08:28
  TRACK 10 AUDIO
    TITLE "13:cjc020_2624"
    INDEX 01 00:09:06
  TRACK 11 AUDIO
    TITLE "0:"
    INDEX 01 00:10:33
  TRACK 12 AUDIO
    TITLE "14:cjc020_2625"
    INDEX 01 00:10:37
  TRACK 13 AUDIO
    TITLE "0:"
    INDEX 01 00:13:71
  TRACK 14 AUDIO
    TITLE "13:cjc020_2626"
    INDEX 01 00:14:53
  TRACK 15 AUDIO
    TITLE "0:"
    INDEX 01 00:16:00
  TRACK 16 AUDIO
    TITLE "14:cjc020_2627"
    INDEX 01 00:16:02
  TRACK 17 AUDIO
    TITLE "0:"
    INDEX 01 00:18:31
  TRACK 18 AUDIO
    TITLE "13:cjc020_2628"
    INDEX 01 00:19:11
  TRACK 19 AUDIO
    TITLE "0:"
    INDEX 01 00:20:20
  TRACK 20 AUDIO
    TITLE "14:cjc020_2629"
    INDEX 01 00:20:24
  TRACK 21 AUDIO
    TITLE "0:"
    INDEX 01 00:24:14
  TRACK 22 AUDIO
    TITLE "13:cjc020_2630"
    INDEX 01 00:24:71
  TRACK 23 AUDIO
    TITLE "0:"
    INDEX 01 00:26:03
  TRACK 24 AUDIO
    TITLE "14:cjc020_2631"
    INDEX 01 00:26:05
  TRACK 25 AUDIO
    TITLE "0:"
    INDEX 01 00:29:23
  TRACK 26 AUDIO
    TITLE "13:cjc020_2632"
    INDEX 01 00:30:03
  TRACK 27 AUDIO
    TITLE "0:"
    INDEX 01 00:31:06
  TRACK 28 AUDIO
    TITLE "14:cjc020_2633"
    INDEX 01 00:31:08
  TRACK 29 AUDIO
    TITLE "0:"
    INDEX 01 00:34:04
  TRACK 30 AUDIO
    TITLE "13:cjc020_2634"
    INDEX 01 00:34:57
  TRACK 31 AUDIO
    TITLE "0:"
    INDEX 01 00:36:07
  TRACK 32 AUDIO
    TITLE "14:cjc020_2635"
    INDEX 01 00:36:09
  TRACK 33 AUDIO
    TITLE "0:"
    INDEX 01 00:39:68
  TRACK 34 AUDIO
    TITLE "13:cjc020_2636"
    INDEX 01 00:40:46
  TRACK 35 AUDIO
    TITLE "0:"
    INDEX 01 00:41:69
  TRACK 36 AUDIO
    TITLE "14:cjc020_2637"
    INDEX 01 00:41:73
  TRACK 37 AUDIO
    TITLE "0:"
    INDEX 01 00:45:14
  TRACK 38 AUDIO
    TITLE "13:cjc020_2638"
    INDEX 01 00:45:67
  TRACK 39 AUDIO
    TITLE "0:"
    INDEX 01 00:47:28
  TRACK 40 AUDIO
    TITLE "14:cjc020_2639"
    INDEX 01 00:47:30
  TRACK 41 AUDIO
    TITLE "0:"
    INDEX 01 00:51:38
  TRACK 42 AUDIO
    TITLE "13:cjc020_2640"
    INDEX 01 00:52:20
  TRACK 43 AUDIO
    TITLE "0:"
    INDEX 01 00:53:25
  TRACK 44 AUDIO
    TITLE "14:cjc020_2641"
    INDEX 01 00:53:27
  TRACK 45 AUDIO
    TITLE "0:"
    INDEX 01 00:56:74
  TRACK 46 AUDIO
    TITLE "13:cjc020_2642"
    INDEX 01 00:57:54
  TRACK 47 AUDIO
    TITLE "0:"
    INDEX 01 00:58:56
  TRACK 48 AUDIO
    TITLE "14:cjc020_2643"
    INDEX 01 00:58:58
  TRACK 49 AUDIO
    TITLE "0:"
    INDEX 01 01:04:37
  TRACK 50 AUDIO
    TITLE "13:cjc020_2644"
    INDEX 01 01:05:17
  TRACK 51 AUDIO
    TITLE "0:"
    INDEX 01 01:06:32
  TRACK 52 AUDIO
    TITLE "14:cjc020_2645"
    INDEX 01 01:06:36
  TRACK 53 AUDIO
    TITLE "0:"
    INDEX 01 01:10:20
  TRACK 54 AUDIO
    TITLE "13:cjc020_2646"
    INDEX 01 01:11:02
  TRACK 55 AUDIO
    TITLE "0:"
    INDEX 01 01:12:07
  TRACK 56 AUDIO
    TITLE "14:cjc020_2647"
    INDEX 01 01:12:09
  TRACK 57 AUDIO
    TITLE "0:"
    INDEX 01 01:13:26
  TRACK 58 AUDIO
    TITLE "13:cjc020_2648"
    INDEX 01 01:14:10
  TRACK 59 AUDIO
    TITLE "0:"
    INDEX 01 01:15:21
  TRACK 60 AUDIO
    TITLE "14:cjc020_2649"
    INDEX 01 01:15:25
  TRACK 61 AUDIO
    TITLE "0:"
    INDEX 01 01:16:38
  TRACK 62 AUDIO
    TITLE "13:cjc020_2650"
    INDEX 01 01:17:16
  TRACK 63 AUDIO
    TITLE "0:"
    INDEX 01 01:18:27
  TRACK 64 AUDIO
    TITLE "14:cjc020_2651"
    INDEX 01 01:18:31
  TRACK 65 AUDIO
    TITLE "0:"
    INDEX 01 01:23:11
